# xmcd
# Track frame offsets:
# 150
# 18073
# 34569
# 49418
# 66821
# 80729
# 100030
#
# Disc length: 1516 seconds
# Revision: 0
# Processed by: cddbd v1.5.2PL0 Copyright (c) Steve Scherf et al.
# Submitted via: VisiTrax 2.10.2.252 - For more info visit www.synapsa.com
#
DISCID=4e05ea07
DTITLE=Roselie and Jack - Demo
DYEAR=2007
DGENRE=Blues and Jazz
TTITLE0=Demo
TTITLE1=Demo
TTITLE2=Demo
TTITLE3=Demo
TTITLE4=Demo
TTITLE5=Demo
TTITLE6=Demo
EXTD=
EXTT0=
EXTT1=
EXTT2=
EXTT3=
EXTT4=
EXTT5=
EXTT6=
PLAYORDER=
